{
  "accessors": [
    {
      "bufferView": 2,
      "componentType": 5126,
      "count": 8805,
      "max": [
        0.08439544588327408,
        0.017049476504325867,
        0.4516620635986328
      ],
      "min": [
        -0.08439544588327408,
        -0.01704946905374527,
        -0.13996338844299316
      ],
      "type": "VEC3"
    },
    {
      "bufferView": 2,
      "byteOffset": 105660,
      "componentType": 5126,
      "count": 8805,
      "max": [
        1.0,
        1.0,
        1.0
      ],
      "min": [
        -1.0,
        -1.0,
        -1.0
      ],
      "type": "VEC3"
    },
    {
      "bufferView": 3,
      "componentType": 5126,
      "count": 8805,
      "max": [
        1.0,
        1.0,
        1.0,
        1.0
      ],
      "min": [
        -1.0,
        -1.0,
        -1.0,
        -1.0
      ],
      "type": "VEC4"
    },
    {
      "bufferView": 1,
      "componentType": 5126,
      "count": 8805,
      "max": [
        0.9430243968963623,
        0.99951171875
      ],
      "min": [
        0.00048828125,
        0.00048828125
      ],
      "type": "VEC2"
    },
    {
      "bufferView": 0,
      "componentType": 5125,
      "count": 34290,
      "type": "SCALAR"
    }
  ],
  "asset": {
    "extras": {
      "author": "DigitalBirb (https://sketchfab.com/pawwozniak333)",
      "license": "CC-BY-4.0 (http://creativecommons.org/licenses/by/4.0/)",
      "source": "https://sketchfab.com/3d-models/squid-dagger-6c854890a5b0401486bfe10746d0f65e",
      "title": "Squid Dagger"
    },
    "generator": "Sketchfab-13.74.0",
    "version": "2.0"
  },
  "bufferViews": [
    {
      "buffer": 0,
      "byteLength": 137160,
      "name": "floatBufferViews",
      "target": 34963
    },
    {
      "buffer": 0,
      "byteLength": 70440,
      "byteOffset": 137160,
      "byteStride": 8,
      "name": "floatBufferViews",
      "target": 34962
    },
    {
      "buffer": 0,
      "byteLength": 211320,
      "byteOffset": 207600,
      "byteStride": 12,
      "name": "floatBufferViews",
      "target": 34962
    },
    {
      "buffer": 0,
      "byteLength": 140880,
      "byteOffset": 418920,
      "byteStride": 16,
      "name": "floatBufferViews",
      "target": 34962
    }
  ],
  "buffers": [
    {
      "byteLength": 559800,
      "uri": "scene.bin"
    }
  ],
  "images": [
    {
      "uri": "textures/Knife_baseColor.png"
    },
    {
      "uri": "textures/Knife_metallicRoughness.png"
    },
    {
      "uri": "textures/Knife_normal.png"
    }
  ],
  "materials": [
    {
      "doubleSided": true,
      "name": "Knife",
      "normalTexture": {
        "index": 2
      },
      "pbrMetallicRoughness": {
        "baseColorTexture": {
          "index": 0
        },
        "metallicRoughnessTexture": {
          "index": 1
        }
      }
    }
  ],
  "meshes": [
    {
      "name": "knife_squid_Knife_0",
      "primitives": [
        {
          "attributes": {
            "NORMAL": 1,
            "POSITION": 0,
            "TANGENT": 2,
            "TEXCOORD_0": 3
          },
          "indices": 4,
          "material": 0,
          "mode": 4
        }
      ]
    }
  ],
  "nodes": [
    {
      "children": [
        1
      ],
      "matrix": [
        0.9546782374382019,
        -0.24470101296901706,
        0.16944283246994013,
        0.0,
        -0.12563040852546692,
        -0.8473786711692809,
        -0.5159131884574892,
        0.0,
        0.2698267102241516,
        0.4712439179420473,
        -0.8397158384323119,
        0.0,
        0.0,
        0.0,
        0.0,
        1.0
      ],
      "name": "Sketchfab_model"
    },
    {
      "children": [
        2
      ],
      "matrix": [
        0.009999999776482582,
        0.0,
        0.0,
        0.0,
        0.0,
        0.0,
        0.009999999776482582,
        0.0,
        0.0,
        -0.009999999776482582,
        0.0,
        0.0,
        0.0,
        0.0,
        0.0,
        1.0
      ],
      "name": "fbf9bc1fe7d84701b468d37d09b52e4d.fbx"
    },
    {
      "children": [
        3
      ],
      "name": "RootNode"
    },
    {
      "children": [
        4
      ],
      "matrix": [
        100.0,
        0.0,
        0.0,
        0.0,
        0.0,
        -1.629206793918314e-05,
        -99.99999999999868,
        0.0,
        0.0,
        99.99999999999868,
        -1.629206793918314e-05,
        0.0,
        0.0,
        9.242476463317871,
        0.0,
        1.0
      ],
      "name": "knife_squid"
    },
    {
      "mesh": 0,
      "name": "knife_squid_Knife_0"
    }
  ],
  "samplers": [
    {
      "magFilter": 9729,
      "minFilter": 9987,
      "wrapS": 10497,
      "wrapT": 10497
    }
  ],
  "scene": 0,
  "scenes": [
    {
      "name": "Sketchfab_Scene",
      "nodes": [
        0
      ]
    }
  ],
  "textures": [
    {
      "sampler": 0,
      "source": 0
    },
    {
      "sampler": 0,
      "source": 1
    },
    {
      "sampler": 0,
      "source": 2
    }
  ]
}
